<?xml version="1.0" encoding="utf-8"?>
<!-- Generator: Adobe Illustrator 16.0.0, SVG Export Plug-In . SVG Version: 6.00 Build 0)  -->
<!DOCTYPE svg PUBLIC "-//W3C//DTD SVG 1.1//EN" "http://www.w3.org/Graphics/SVG/1.1/DTD/svg11.dtd">
<svg version="1.1" id="Layer_1" xmlns="http://www.w3.org/2000/svg" xmlns:xlink="http://www.w3.org/1999/xlink" x="0px" y="0px"
	 width="32px" height="32px" viewBox="0 0 32 32" enable-background="new 0 0 32 32" xml:space="preserve">
<g>
	<path fill-rule="evenodd" clip-rule="evenodd" fill="#AFC9E9" d="M-556.053,9.881c-1.756-0.027-3.198-1.465-3.146-3.13
		c0.053-1.666,1.545-3.032,3.285-2.998c1.783,0.033,3.117,1.391,3.096,3.143C-552.841,8.64-554.218,9.909-556.053,9.881z"/>
	<path fill-rule="evenodd" clip-rule="evenodd" fill="#AFC9E9" d="M-556,0.051c-8.808,0-15.948,7.14-15.948,15.949
		c0,8.809,7.141,15.949,15.948,15.949c8.809,0,15.948-7.141,15.948-15.949C-540.052,7.19-547.191,0.051-556,0.051z M-556,31.151
		c-8.367,0-15.151-6.784-15.151-15.151S-564.367,0.848-556,0.848c8.368,0,15.152,6.785,15.152,15.152S-547.632,31.151-556,31.151z"
		/>
	<path fill="#AFC9E9" d="M-547.826,14.046c0.019-3.258-3.81-3.446-3.81-3.446l-9.359,0.039c0,0-3.182,0.112-3.182,3.48
		c0,3.372,0,9.896,0,9.896s0.083,1.005,0.91,1.082c0.826,0.073,0.367,0.113,1.137-0.113c0.76-0.216,0.854-0.35,0.919,0.75
		c0.067,1.09,0.104,2.064,0.104,2.064l-0.216,1.812l-0.243,0.666l0.825,0.349c0,0,3.716,1.728,9.377-0.093l0.798-0.396
		c0,0-0.412-0.862-0.405-1.934c0.012-1.062-0.111-1.145,0.097-3.07c0,0,0.112-0.826,0.899-0.337c0.791,0.488,0.235,0.197,1.08,0.337
		c0.761,0.124,1.069-1.426,1.069-1.426S-547.854,17.303-547.826,14.046z M-555.991,31.169c-0.282,0-0.516-1.342-0.516-2.995
		c0-1.661,0.233-3.004,0.516-3.004c0.291,0,0.517,1.343,0.517,3.004C-555.474,29.827-555.7,31.169-555.991,31.169z"/>
	<path fill="#AFC9E9" d="M-569.572,20.147h2.597v0.747c0,0.207,0.17,0.376,0.375,0.376c0.1,0,0.193-0.041,0.263-0.11l1.499-1.499
		c0.07-0.069,0.111-0.163,0.111-0.264s-0.041-0.191-0.111-0.263l-1.499-1.498c-0.07-0.07-0.164-0.111-0.263-0.111
		c-0.205,0-0.375,0.171-0.375,0.375v0.75h-2.597V20.147z"/>
	<path fill="#AFC9E9" d="M-547.015,19.661l1.497,1.499c0.071,0.069,0.164,0.11,0.263,0.11c0.206,0,0.375-0.169,0.375-0.376v-0.747
		h2.482V18.65h-2.482V17.9c0-0.204-0.169-0.375-0.375-0.375c-0.099,0-0.191,0.041-0.263,0.111l-1.497,1.498
		c-0.072,0.071-0.111,0.162-0.111,0.263S-547.087,19.592-547.015,19.661z"/>
</g>
<g>
	<path fill-rule="evenodd" clip-rule="evenodd" fill="#AFC9E9" d="M-504.052,9.897c-1.752-0.026-3.19-1.459-3.138-3.121
		c0.053-1.662,1.541-3.022,3.277-2.989c1.775,0.033,3.107,1.386,3.087,3.133C-500.85,8.66-502.222,9.926-504.052,9.897z"/>
	<path fill-rule="evenodd" clip-rule="evenodd" fill="#AFC9E9" d="M-503.999,0.095c-8.784,0-15.905,7.12-15.905,15.905
		c0,8.784,7.121,15.905,15.905,15.905s15.904-7.121,15.904-15.905C-488.095,7.214-495.215,0.095-503.999,0.095z M-503.999,31.109
		c-8.346,0-15.11-6.766-15.11-15.109c0-8.345,6.765-15.111,15.11-15.111c8.345,0,15.109,6.767,15.109,15.111
		C-488.89,24.344-495.654,31.109-503.999,31.109z"/>
	<path fill="#AFC9E9" d="M-495.848,14.052c0.021-3.249-3.8-3.437-3.8-3.437l-9.333,0.039c0,0-3.173,0.113-3.173,3.472
		c0,3.361,0,9.869,0,9.869s0.083,1.001,0.907,1.077c0.824,0.073,0.365,0.112,1.134-0.112c0.759-0.216,0.852-0.349,0.917,0.748
		c0.066,1.085,0.103,2.06,0.103,2.06l-0.216,1.807l-0.242,0.664l0.823,0.347c0,0,3.706,1.723,9.353-0.093l0.795-0.394
		c0,0-0.412-0.861-0.402-1.93c0.008-1.057-0.113-1.142,0.094-3.06c0,0,0.113-0.825,0.898-0.338c0.787,0.487,0.234,0.197,1.077,0.338
		c0.757,0.121,1.065-1.424,1.065-1.424S-495.875,17.301-495.848,14.052z M-503.991,31.128c-0.28,0-0.514-1.34-0.514-2.988
		c0-1.655,0.233-2.995,0.514-2.995c0.291,0,0.516,1.34,0.516,2.995C-503.476,29.788-503.7,31.128-503.991,31.128z"/>
	<path fill="#AFC9E9" d="M-517.536,23.923h2.592v0.745c0,0.206,0.168,0.374,0.372,0.374c0.1,0,0.193-0.039,0.264-0.11l1.495-1.494
		c0.068-0.068,0.11-0.163,0.11-0.261c0-0.101-0.042-0.192-0.11-0.264l-1.495-1.493c-0.07-0.07-0.164-0.111-0.264-0.111
		c-0.204,0-0.372,0.169-0.372,0.373v0.747h-2.592V23.923z"/>
	<path fill="#AFC9E9" d="M-495.038,23.438l1.493,1.494c0.069,0.071,0.162,0.11,0.262,0.11c0.204,0,0.374-0.168,0.374-0.374v-0.745
		h2.474v-1.494h-2.474v-0.747c0-0.204-0.17-0.373-0.374-0.373c-0.1,0-0.192,0.041-0.262,0.111l-1.493,1.493
		c-0.071,0.071-0.113,0.163-0.113,0.264C-495.151,23.274-495.109,23.369-495.038,23.438z"/>
</g>
<g>
	<path fill-rule="evenodd" clip-rule="evenodd" fill="#AFC9E9" d="M-452.054,9.897c-1.751-0.026-3.188-1.461-3.137-3.123
		c0.054-1.661,1.541-3.022,3.276-2.989c1.775,0.032,3.109,1.386,3.09,3.134C-448.85,8.659-450.223,9.925-452.054,9.897z"/>
	<path fill-rule="evenodd" clip-rule="evenodd" fill="#AFC9E9" d="M-452,0.09c-8.786,0-15.909,7.122-15.909,15.911
		c0,8.786,7.123,15.909,15.909,15.909s15.909-7.123,15.909-15.909C-436.091,7.211-443.214,0.09-452,0.09z M-452,31.112
		c-8.346,0-15.112-6.766-15.112-15.112c0-8.347,6.767-15.115,15.112-15.115S-436.885,7.653-436.885,16
		C-436.885,24.347-443.654,31.112-452,31.112z"/>
	<path fill="#AFC9E9" d="M-443.843,14.05c0.019-3.248-3.803-3.436-3.803-3.436l-9.335,0.038c0,0-3.177,0.113-3.177,3.474
		c0,3.363,0,9.874,0,9.874s0.084,0.999,0.908,1.074c0.825,0.075,0.365,0.114,1.135-0.111c0.758-0.217,0.853-0.348,0.916,0.749
		c0.067,1.087,0.105,2.06,0.105,2.06l-0.217,1.808l-0.242,0.663l0.821,0.348c0,0,3.708,1.722,9.357-0.095l0.794-0.393
		c0,0-0.412-0.861-0.401-1.928c0.009-1.059-0.114-1.145,0.095-3.064c0,0,0.112-0.822,0.897-0.337
		c0.786,0.487,0.233,0.198,1.077,0.337c0.756,0.123,1.068-1.421,1.068-1.421S-443.872,17.301-443.843,14.05z M-451.989,31.133
		c-0.284,0-0.516-1.34-0.516-2.986c0-1.66,0.231-2.998,0.516-2.998c0.29,0,0.513,1.338,0.513,2.998
		C-451.477,29.793-451.699,31.133-451.989,31.133z"/>
	<path fill="#AFC9E9" d="M-465.538,17.109h2.59v0.744c0,0.205,0.167,0.376,0.374,0.376c0.1,0,0.192-0.042,0.262-0.112l1.496-1.495
		c0.069-0.07,0.108-0.165,0.108-0.262c0-0.1-0.039-0.192-0.108-0.265l-1.496-1.493c-0.069-0.07-0.162-0.111-0.262-0.111
		c-0.207,0-0.374,0.169-0.374,0.374v0.749h-2.59V17.109z"/>
	<path fill="#AFC9E9" d="M-443.036,16.622l1.493,1.495c0.07,0.07,0.165,0.112,0.263,0.112c0.203,0,0.376-0.171,0.376-0.376v-0.744
		h2.474v-1.496h-2.474v-0.749c0-0.204-0.173-0.374-0.376-0.374c-0.098,0-0.192,0.042-0.263,0.111l-1.493,1.493
		c-0.071,0.072-0.113,0.165-0.113,0.265C-443.149,16.457-443.107,16.552-443.036,16.622z"/>
</g>
<g>
	<path fill-rule="evenodd" clip-rule="evenodd" fill="#AFC9E9" d="M-400.051,9.912c-1.749-0.028-3.185-1.459-3.135-3.115
		c0.057-1.66,1.539-3.017,3.273-2.982c1.774,0.033,3.103,1.382,3.081,3.126C-396.858,8.676-398.226,9.938-400.051,9.912z"/>
	<path fill-rule="evenodd" clip-rule="evenodd" fill="#AFC9E9" d="M-400,0.126c-8.764,0-15.872,7.106-15.872,15.874
		c0,8.764,7.108,15.874,15.872,15.874c8.769,0,15.872-7.109,15.872-15.874C-384.128,7.232-391.231,0.126-400,0.126z M-400,31.079
		c-8.329,0-15.081-6.753-15.081-15.079c0-8.329,6.752-15.083,15.081-15.083S-384.919,7.672-384.919,16
		C-384.919,24.326-391.671,31.079-400,31.079z"/>
	<path fill="#AFC9E9" d="M-391.86,14.055c0.02-3.243-3.797-3.428-3.797-3.428l-9.31,0.038c0,0-3.173,0.111-3.173,3.464
		c0,3.353,0,9.846,0,9.846s0.084,1.003,0.908,1.073c0.821,0.079,0.365,0.115,1.131-0.106c0.753-0.217,0.848-0.345,0.916,0.744
		c0.065,1.086,0.104,2.059,0.104,2.059l-0.218,1.799l-0.246,0.668l0.825,0.345c0,0,3.701,1.716,9.336-0.096l0.79-0.389
		c0,0-0.408-0.864-0.397-1.93c0.006-1.054-0.113-1.136,0.092-3.055c0,0,0.111-0.819,0.896-0.332
		c0.787,0.485,0.233,0.192,1.076,0.332c0.755,0.123,1.066-1.418,1.066-1.418S-391.888,17.298-391.86,14.055z M-399.989,31.1
		c-0.278,0-0.518-1.339-0.518-2.984c0-1.653,0.239-2.987,0.518-2.987c0.288,0,0.511,1.334,0.511,2.987
		C-399.479,29.761-399.701,31.1-399.989,31.1z"/>
	<path fill="#AFC9E9" d="M-413.507,14.081h2.583v0.744c0,0.204,0.171,0.375,0.372,0.375c0.099,0,0.192-0.041,0.264-0.111
		l1.488-1.491c0.074-0.07,0.114-0.163,0.114-0.261c0-0.102-0.04-0.191-0.114-0.264l-1.488-1.489
		c-0.071-0.072-0.165-0.114-0.264-0.114c-0.201,0-0.372,0.17-0.372,0.375v0.745h-2.583V14.081z"/>
	<path fill="#AFC9E9" d="M-391.056,13.597l1.488,1.491c0.067,0.07,0.167,0.111,0.263,0.111c0.203,0,0.376-0.171,0.376-0.375v-0.744
		h2.468v-1.491h-2.468v-0.745c0-0.205-0.173-0.375-0.376-0.375c-0.096,0-0.195,0.042-0.263,0.114l-1.488,1.489
		c-0.073,0.073-0.113,0.162-0.113,0.264C-391.169,13.435-391.129,13.527-391.056,13.597z"/>
</g>
<g>
	<g>
		<path fill-rule="evenodd" clip-rule="evenodd" fill="#AFC9E9" d="M-244.051,9.874c-1.748-0.027-3.184-1.456-3.129-3.112
			c0.051-1.657,1.535-3.014,3.267-2.98c1.771,0.032,3.099,1.382,3.076,3.124C-240.859,8.64-242.227,9.902-244.051,9.874z"/>
		<path fill="#AFC9E9" d="M-235.869,14.016c0.019-3.239-3.79-3.427-3.79-3.427l-9.308,0.038c0,0-3.164,0.112-3.164,3.463
			c0,3.35,0,9.839,0,9.839s0.084,1,0.906,1.075c0.821,0.073,0.364,0.111,1.13-0.113c0.755-0.214,0.848-0.347,0.914,0.748
			c0.064,1.082,0.104,2.052,0.104,2.052l-0.215,1.803l-0.244,0.661l0.821,0.347c0,0,3.698,1.717,9.326-0.093l0.794-0.393
			c0,0-0.41-0.858-0.401-1.924c0.009-1.055-0.112-1.138,0.092-3.051c0,0,0.112-0.822,0.897-0.337
			c0.783,0.484,0.233,0.195,1.074,0.337c0.755,0.12,1.063-1.42,1.063-1.42S-235.897,17.257-235.869,14.016z M-243.991,31.044
			c-0.278,0-0.514-1.336-0.514-2.979c0-1.652,0.235-2.987,0.514-2.987c0.288,0,0.515,1.335,0.515,2.987
			C-243.477,29.708-243.703,31.044-243.991,31.044z M-241.937,18.226c0,1.615-0.029,2.939,0.009,4.257
			c0.018,0.784-0.289,1.017-1.056,1.028c-3.146,0.046-3.146,0.063-3.146-3.118c0-1.923,0-3.847,0.01-5.76
			c0-0.468-0.131-1.027,0.635-1.009c0.299,0.011,0.421-0.168,0.41-0.447c-0.009-0.767,0.542-0.645,1.009-0.636
			c0.485,0.01,0.747,0.308,1.129,0.606C-240.882,14.715-242.177,16.812-241.937,18.226z"/>
	</g>
	<path fill="#AFC9E9" d="M-242.399,16.348c0,0.121-0.097,0.22-0.216,0.22h-0.947v0.946c0,0.121-0.099,0.219-0.219,0.219h-0.438
		c-0.121,0-0.219-0.098-0.219-0.219v-0.946h-0.947c-0.12,0-0.218-0.099-0.218-0.22v-0.437c0-0.119,0.098-0.218,0.218-0.218h0.947
		v-0.947c0-0.12,0.098-0.219,0.219-0.219h0.438c0.12,0,0.219,0.099,0.219,0.219v0.947h0.947c0.119,0,0.216,0.099,0.216,0.218V16.348
		z"/>
	<path fill="#AFC9E9" d="M-242.399,21.474c0,0.12-0.097,0.218-0.216,0.218h-2.77c-0.12,0-0.218-0.098-0.218-0.218v-0.438
		c0-0.122,0.098-0.219,0.218-0.219h2.77c0.119,0,0.216,0.097,0.216,0.219V21.474z"/>
	<path fill-rule="evenodd" clip-rule="evenodd" fill="#AFC9E9" d="M-244,0.099c-8.759,0-15.86,7.099-15.86,15.86
		c0,8.76,7.102,15.86,15.86,15.86c8.76,0,15.86-7.101,15.86-15.86C-228.14,7.198-235.24,0.099-244,0.099z M-244,31.025
		c-8.321,0-15.066-6.745-15.066-15.066c0-8.322,6.745-15.069,15.066-15.069c8.322,0,15.066,6.747,15.066,15.069
		C-228.934,24.28-235.678,31.025-244,31.025z"/>
</g>
<g>
	<path fill-rule="evenodd" clip-rule="evenodd" fill="#AFC9E9" d="M-296.042,9.882c-1.755-0.026-3.198-1.463-3.146-3.128
		c0.054-1.666,1.545-3.03,3.286-2.996c1.779,0.033,3.114,1.39,3.094,3.141C-292.833,8.642-294.209,9.911-296.042,9.882z"/>
	<path fill-rule="evenodd" clip-rule="evenodd" fill="#AFC9E9" d="M-297.834,15.867c-0.025,0.483,0.066,1.054-0.686,1.084
		c-0.624,0.019-0.746-0.4-0.756-0.897c-0.008-0.566,0.064-1.173,0.779-1.182C-297.956,14.862-297.801,15.37-297.834,15.867z"/>
	<path fill="#AFC9E9" d="M-287.818,14.048c0.02-3.255-3.807-3.446-3.807-3.446l-9.356,0.042c0,0-3.18,0.106-3.18,3.473
		c0,3.372,0,9.899,0,9.899s0.083,0.996,0.905,1.072c0.827,0.075,0.366,0.116,1.136-0.104c0.767-0.219,0.855-0.349,0.921,0.742
		c0.067,1.092,0.105,2.062,0.105,2.062l-0.213,1.816l-0.25,0.666l0.831,0.347c0,0,3.713,1.724,9.375-0.095l0.797-0.391
		c0,0-0.415-0.866-0.408-1.931c0.007-1.066-0.109-1.147,0.096-3.071c0,0,0.114-0.825,0.901-0.341
		c0.786,0.486,0.232,0.197,1.083,0.337c0.753,0.126,1.063-1.422,1.063-1.422S-287.846,17.304-287.818,14.048z M-300.184,15.946
		c-0.013-1.567,0.522-2.264,1.718-2.234c1.104,0.027,1.59,0.704,1.59,2.229c0,1.526-0.47,2.131-1.653,2.136
		C-299.724,18.081-300.17,17.508-300.184,15.946z M-297.121,21.06c-0.121,0.249-0.226,0.677-0.68,0.512
		c-0.61-0.225-0.138-0.66-0.046-0.878c0.48-1.105,1.049-2.182,1.589-3.267c0.447-1.018,0.899-2.033,1.347-3.051
		c0.152-0.344,0.378-0.738,0.791-0.574c0.342,0.137,0.206,0.562,0.066,0.845c-0.613,1.24-1.243,2.474-1.869,3.708
		C-296.32,19.26-296.696,20.168-297.121,21.06z M-295.978,31.167c-0.285,0-0.517-1.345-0.517-3.002c0-1.655,0.231-2.997,0.517-2.997
		s0.518,1.342,0.518,2.997C-295.46,29.822-295.692,31.167-295.978,31.167z M-291.919,19.514c-0.083,0.522,0.183,1.237-0.461,1.766
		c-0.527,0.438-1.146,0.413-1.721,0.248c-0.583-0.17-0.838-0.666-0.823-1.273c0.013-0.494,0.016-0.989-0.006-1.485
		c-0.044-1.008,0.523-1.561,1.483-1.596c1-0.037,1.522,0.562,1.527,1.54C-291.919,18.94-291.919,19.164-291.919,19.514z"/>
	<path fill-rule="evenodd" clip-rule="evenodd" fill="#AFC9E9" d="M-292.784,19.435c0.014,0.536-0.089,1.019-0.693,0.97
		c-0.746-0.062-0.539-0.691-0.554-1.145c-0.018-0.443-0.047-0.974,0.644-0.908C-292.65,18.423-292.849,19.041-292.784,19.435z"/>
	<path fill-rule="evenodd" clip-rule="evenodd" fill="#AFC9E9" d="M-295.999,0.056c-8.806,0-15.944,7.137-15.944,15.944
		c0,8.806,7.139,15.944,15.944,15.944c8.805,0,15.943-7.139,15.943-15.944C-280.056,7.193-287.194,0.056-295.999,0.056z
		 M-295.999,31.146c-8.364,0-15.147-6.781-15.147-15.146s6.783-15.148,15.147-15.148S-280.853,7.635-280.853,16
		S-287.635,31.146-295.999,31.146z"/>
</g>
<g>
	<path fill-rule="evenodd" clip-rule="evenodd" fill="#AFC9E9" d="M-192.046,9.836c-1.753-0.03-3.192-1.468-3.138-3.131
		c0.054-1.662,1.545-3.021,3.28-2.981c1.781,0.039,3.112,1.396,3.088,3.145C-188.841,8.608-190.215,9.873-192.046,9.836z"/>
	<path fill="#AFC9E9" d="M-183.839,14.02c0.025-3.25-3.798-3.453-3.798-3.453l-9.341,0.019c0,0-3.174,0.097-3.176,3.459
		c-0.003,3.364-0.009,9.884-0.009,9.884s0.083,0.995,0.904,1.073c0.823,0.077,0.365,0.117,1.133-0.102
		c0.765-0.215,0.855-0.347,0.919,0.744c0.065,1.093,0.104,2.062,0.104,2.062l-0.215,1.808l-0.249,0.668l0.83,0.348
		c0,0,3.705,1.733,9.359-0.069l0.794-0.387c0,0-0.412-0.866-0.405-1.929c0.01-1.063-0.105-1.145,0.1-3.067
		c0,0,0.114-0.823,0.898-0.336c0.783,0.484,0.233,0.196,1.081,0.339c0.754,0.125,1.063-1.418,1.063-1.418
		S-183.866,17.271-183.839,14.02z M-191.997,31.09c-0.283,0-0.515-1.345-0.511-2.996c0-1.655,0.232-2.995,0.517-2.995
		c0.285,0.001,0.514,1.341,0.513,2.996S-191.709,31.091-191.997,31.09z M-187.174,20.336c-0.124,1.617-1.095,2.609-2.539,3.24
		c-2.538,1.124-5.694,0.196-6.816-1.985c-0.539-1.04-0.351-2.104-0.229-3.184c0.308-0.498,0.255-1.121,0.574-1.615
		c0.874-1.565,2.12-2.839,3.355-4.126c0.729-1.341,0.719-1.34,1.578-0.165c1.069,1.472,2.514,2.669,3.351,4.322
		C-187.326,17.935-186.951,19.078-187.174,20.336z"/>
	<g>
		<path fill-rule="evenodd" clip-rule="evenodd" fill="#AFC9E9" d="M-192.156,18.442c0.345-0.781,0.69-1.561,1.035-2.341
			c0.117-0.265,0.293-0.565,0.611-0.439c0.261,0.104,0.155,0.432,0.047,0.649c-0.472,0.952-0.956,1.9-1.438,2.847
			C-192.175,18.981-192.239,18.739-192.156,18.442z"/>
		<path fill-rule="evenodd" clip-rule="evenodd" fill="#AFC9E9" d="M-192.156,18.442c0.082,0.238,0.171,0.478,0.256,0.716
			c-0.306,0.693-0.593,1.393-0.924,2.076c-0.092,0.19-0.172,0.518-0.521,0.392c-0.467-0.175-0.108-0.507-0.035-0.675
			C-193.012,20.102-192.573,19.276-192.156,18.442z"/>
	</g>
	<path fill-rule="evenodd" clip-rule="evenodd" fill="#AFC9E9" d="M-193.853,15.583c-0.919-0.023-1.329,0.511-1.321,1.716
		c0.01,1.201,0.352,1.64,1.271,1.638c0.91,0.001,1.271-0.463,1.271-1.64C-192.632,16.129-193.003,15.607-193.853,15.583z
		 M-193.895,18.071c-0.481,0.017-0.575-0.31-0.581-0.689c-0.004-0.437,0.051-0.903,0.599-0.906c0.416-0.006,0.535,0.383,0.508,0.765
		C-193.389,17.612-193.318,18.05-193.895,18.071z"/>
	<path fill-rule="evenodd" clip-rule="evenodd" fill="#AFC9E9" d="M-188.824,19.441c-0.003-0.753-0.404-1.215-1.172-1.187
		c-0.737,0.022-1.177,0.447-1.14,1.223c0.013,0.381,0.011,0.76,0.002,1.142c-0.012,0.469,0.184,0.849,0.633,0.98
		c0.441,0.128,0.916,0.146,1.323-0.187c0.494-0.403,0.29-0.957,0.352-1.355C-188.824,19.787-188.824,19.614-188.824,19.441z
		 M-190.021,20.735c-0.573-0.046-0.414-0.53-0.424-0.88c-0.014-0.339-0.038-0.749,0.494-0.695c0.564,0.057,0.415,0.531,0.462,0.835
		C-189.479,20.407-189.557,20.776-190.021,20.735z"/>
	<path fill-rule="evenodd" clip-rule="evenodd" fill="#AFC9E9" d="M-192,0.04c-8.792,0-15.919,7.126-15.919,15.919
		c0,8.792,7.127,15.919,15.919,15.919s15.919-7.127,15.919-15.919C-176.081,7.166-183.208,0.04-192,0.04z M-192,31.081
		c-8.353,0-15.122-6.77-15.122-15.122S-200.353,0.834-192,0.834s15.123,6.772,15.123,15.125S-183.647,31.081-192,31.081z"/>
</g>
<g>
	<path fill-rule="evenodd" clip-rule="evenodd" fill="#AFC9E9" d="M-87.94,9.799c-1.753,0.032-3.245-1.356-3.248-3.021
		c-0.003-1.665,1.44-3.076,3.18-3.097c1.779-0.023,3.159,1.286,3.196,3.036C-84.777,8.458-86.107,9.771-87.94,9.799z"/>
	<g>
		<path fill="#AFC9E9" d="M-85.727,22.224c0.272-0.204,0.364-0.516,0.217-0.854c-0.13-0.302-0.371-0.453-0.671-0.354
			c-1.044,0.35-2.074,0.221-3.114,0c-0.307-0.064-0.547,0.1-0.702,0.35c-0.181,0.291-0.039,0.54,0.185,0.736
			c0.61,0.542,1.344,0.812,2.14,0.97C-86.976,22.891-86.306,22.653-85.727,22.224z"/>
		<path fill="#AFC9E9" d="M-85.877,30.35c0.52-3.168,0.458-2.683-0.713-6.113c-0.022,0.011-0.033,0.022-0.057,0.044
			c-0.584,0.384-1.189,0.471-1.807,0.057c-0.009-0.012-0.031-0.024-0.044-0.034c-0.797,1.346-0.958,2.904-0.98,4.374
			c0,0.617,0.206,1.152,0.186,1.77c-0.023,0.313-0.057,0.224-0.236,0.506c-0.036,0.039-0.096,0.14-0.151,0.217
			c1.044,0.128,2.419,0.157,4.055-0.109C-85.779,30.808-85.858,30.694-85.877,30.35z M-87.147,31.056
			c-0.283,0.009-0.56-1.328-0.616-2.98c-0.057-1.656,0.13-3.005,0.412-3.013c0.286-0.01,0.562,1.323,0.619,2.978
			C-86.677,29.693-86.859,31.046-87.147,31.056z"/>
		<path fill="#AFC9E9" d="M-93.73,14.004c0.008-0.019,0.015-0.037,0.027-0.06c0.004-0.04,0.011-0.081,0.011-0.12
			C-93.706,13.901-93.72,13.958-93.73,14.004z"/>
		<path fill="#AFC9E9" d="M-93.73,14.004C-93.79,14.136-93.772,14.171-93.73,14.004L-93.73,14.004z"/>
		<path fill="#AFC9E9" d="M-79.586,13.695c-0.088-3.251-3.918-3.32-3.918-3.32l-9.342,0.346c0,0-3.172,0.207-3.056,3.57
			c0.115,3.366,0.338,9.886,0.338,9.886s0.117,0.992,0.941,1.041c0.827,0.05,0.371,0.103,1.13-0.141
			c0.758-0.242,0.843-0.376,0.945,0.712c0.104,1.091,0.175,2.058,0.175,2.058l-0.15,1.817l-0.225,0.676l0.842,0.318
			c0,0,0.34,0.144,0.958,0.289c-0.233-0.327-0.27-0.768-0.255-0.931c0.146-1.517,0.298-2.947-0.309-4.428
			c-0.474-0.792,1.093-1.483,0.559-2.656c-0.597-0.774-0.889-1.592-0.306-2.513c0.55-0.853,1.313-0.853,2.133-0.506
			c0.37,0.156,0.594,0.056,0.57-0.291c-0.111-1.853,0.619-2.819,0.002-4.683c-0.201-0.628-0.572-1.796-1.08-1.75
			c-0.245-0.225-0.537-0.131-0.797-0.334c-0.179,0.034-0.345,0.09-0.522,0.013c-1.882-0.105-2.554,0.705-2.751,1.074
			c-0.024,0.369-0.15,0.755-0.201,1.068c-0.339,2.378,0.275,8.595-0.05,9.139c-0.358,0.234-0.789,0.521-1.081,0.129
			c-0.313-3.512-0.307-7.898,0.132-11.41l-0.034,0.01c0.168-0.179,0.332-0.501,0.547-0.512c0.121-0.312,0.418-0.395,0.743-0.519
			c0.032-0.112,0.079-0.09,0.191-0.158c0.079,0.057,0.157,0.045,0.214-0.034c0.862-0.404,1.715-0.404,2.58,0.01
			c0.998,0.147,1.984,0.147,2.984,0.023c0.47,0.158,1.239,0.313,1.711,0.045c0.539,0.066,0.791,0.101,1.318-0.091
			c0.864-0.405,1.727-0.392,2.581,0.035c0.056,0.068,0.11,0.078,0.191,0.022c0.135,0.067,0.322,0.191,0.332,0.326
			c0.474,0.112,0.474,0.628,0.891,0.818c0.661,3.367,0.335,6.767,0.348,10.154c0,0.361-0.247,0.709-0.382,1.057
			c-0.966-0.033-0.898-0.741-0.92-1.414c-0.058-2.392-0.079-4.781-0.213-7.17c-0.158-3.119-0.158-3.075-3.535-2.356
			c-0.135,0.022-0.281,0.034-0.414,0.056c-1.112,0.371-1.339,1.048-1.237,2.182c0.089,0.853-0.01,1.835-0.032,2.69
			c-0.022,1.143-0.235,2.298,1.615,1.714c0.719-0.226,1.201,0.37,1.393,1.1c0.189,1.047-0.191,1.873-0.966,2.548
			c0.214,0.134,0.631,0.098,0.844,0.229c0.092,0.104,0.22,0.39,0.309,0.49c0.26,0.381,0.208,1.152-0.05,1.543
			c-0.902,1.936-0.323,3.112-0.089,5.037c0.465-0.125,0.94-0.265,1.437-0.441l0.781-0.416c0,0-0.444-0.851-0.474-1.914
			c-0.029-1.065-0.147-1.143-0.008-3.071c0,0,0.084-0.829,0.889-0.37c0.799,0.462,0.238,0.19,1.091,0.302
			c0.757,0.102,1.014-1.454,1.014-1.454S-79.499,16.947-79.586,13.695z"/>
	</g>
	<path fill-rule="evenodd" clip-rule="evenodd" fill="#AFC9E9" d="M-88-0.014c-8.798,0-15.931,7.131-15.931,15.931
		c0,8.798,7.133,15.931,15.931,15.931s15.931-7.133,15.931-15.931C-72.069,7.117-79.202-0.014-88-0.014z M-88,31.051
		c-8.358,0-15.134-6.776-15.134-15.134S-96.358,0.781-88,0.781s15.135,6.777,15.135,15.135S-79.642,31.051-88,31.051z"/>
</g>
<g>
	<g>
		<g>
			<path fill="#AFC9E9" d="M-134.833,28.063c0-1.066-0.115-1.145,0.075-3.065c0,0,0.009-0.059,0.034-0.132
				c-0.098-0.255,0.031-0.529-0.037-0.791c-0.098-0.387,0.118-0.824,0.062-1.216c-0.735,0.012-1.558,0.282-2.431,0.291
				c-0.623,0.009-1.306-0.253-1.836-0.21c-0.93,0.071-1.891,0.223-2.837,0.078c-0.133,0.013-0.859,0.234-0.995,0.236
				c-0.367,0-0.294-0.042-0.659-0.073c-0.246-0.021-0.427-0.152-0.675-0.177c-0.344,0.014-0.631-0.107-0.979-0.099v1.104
				c0,0.289-0.036,0.57-0.087,0.845c0.075,0.116,0.11,0.351,0.14,0.787c0.074,1.09,0.117,2.058,0.117,2.058l-0.2,1.81l-0.242,0.668
				l0.83,0.34c0,0,3.714,1.703,9.347-0.139l0.791-0.394C-134.414,29.984-134.833,29.124-134.833,28.063z M-139.814,31.04
				c-0.283,0.002-0.521-1.337-0.534-2.988c-0.012-1.653,0.211-2.994,0.495-2.996c0.283,0,0.523,1.336,0.536,2.989
				C-139.31,29.696-139.527,31.04-139.814,31.04z"/>
			<path fill-rule="evenodd" clip-rule="evenodd" fill="#AFC9E9" d="M-140.022,9.816c-1.75-0.016-3.199-1.441-3.158-3.104
				c0.042-1.661,1.521-3.03,3.257-3.003c1.776,0.027,3.115,1.371,3.106,3.117C-136.831,8.564-138.193,9.837-140.022,9.816z"/>
		</g>
		<path fill-rule="evenodd" clip-rule="evenodd" fill="#AFC9E9" d="M-135.799,10.856c1.229,0.874,1.879,2.208,2.686,3.419
			c1.142,1.713,2.286,3.428,3.429,5.141c0.465,0.694,0.647,1.44-0.114,1.992c-0.805,0.58-1.432,0.027-1.892-0.607
			c-0.994-1.374-1.937-2.787-2.9-4.184c-0.65-0.262-0.869-0.912-1.234-1.422c-0.604-0.838-1.321-1.204-2.366-0.867
			c-1.004,0.324-2.064,0.318-3.071,0.074c-1.48-0.357-2.457,0.219-3.204,1.442c-0.326,0.539-0.551,1.173-1.172,1.48
			c-0.962,1.014-1.604,2.26-2.366,3.415c-0.513,0.776-1.132,1.25-1.958,0.722c-0.86-0.55-0.628-1.325-0.12-2.082
			c1.748-2.6,3.468-5.219,5.198-7.832c0.76-0.798,1.713-1.041,2.782-1.074c1.649-0.05,3.297-0.004,4.944,0.02
			C-136.685,10.498-136.228,10.643-135.799,10.856z"/>
		<g>
			<path fill-rule="evenodd" clip-rule="evenodd" fill="#AFC9E9" d="M-139.905,16.562c-3.229,0.006-5.845,1.271-5.842,2.825
				c0.003,1.557,2.622,2.816,5.853,2.812c3.231-0.007,5.847-1.272,5.843-2.827C-134.054,17.817-136.675,16.556-139.905,16.562z
				 M-139.899,21.655c-2.865,0-5.188-1.02-5.188-2.277c0-1.254,2.322-2.274,5.188-2.274c2.866,0,5.188,1.021,5.188,2.274
				C-134.711,20.636-137.033,21.655-139.899,21.655z"/>
			<ellipse fill-rule="evenodd" clip-rule="evenodd" fill="#AFC9E9" cx="-139.899" cy="19.378" rx="3.438" ry="1.182"/>
		</g>
	</g>
	<path fill-rule="evenodd" clip-rule="evenodd" fill="#AFC9E9" d="M-140,0.019c-8.778,0-15.898,7.118-15.898,15.898
		c0,8.781,7.12,15.898,15.898,15.898c8.78,0,15.898-7.117,15.898-15.898C-124.102,7.137-131.22,0.019-140,0.019z M-140,31.022
		c-8.342,0-15.104-6.765-15.104-15.105c0-8.341,6.762-15.103,15.104-15.103s15.105,6.762,15.105,15.103
		C-124.895,24.258-131.658,31.022-140,31.022z"/>
</g>
<g>
	<path fill-rule="evenodd" clip-rule="evenodd" fill="#AFC9E9" d="M-35.939,9.834c-1.751,0.032-3.238-1.354-3.243-3.015
		c-0.002-1.662,1.438-3.07,3.173-3.09c1.777-0.024,3.153,1.283,3.19,3.029C-32.783,8.496-34.109,9.806-35.939,9.834z"/>
	<path fill-rule="evenodd" clip-rule="evenodd" fill="#AFC9E9" d="M-22.676,14.036c-0.318-0.877-1.01-1.086-1.852-1.118
		c-1.062-0.041-1.869-0.587-2.382-1.511c-0.259-0.462-0.474-0.931-1.015-1.116c-0.331-0.093-0.668-0.1-1.008-0.079
		c-0.199,0.02-0.394,0.059-0.58,0.13c-1.238,1.013-1.148,2.453,0.285,3.046c0.975,0.406,0.635,0.743,0.158,1.325
		c-0.562-0.794-0.984-1.545-1.399-2.301c-0.835-1.228-1.986-1.77-3.465-1.72c-1.395,0.047-2.798,0.096-4.188-0.011
		c-2.135-0.161-3.432,0.9-4.372,2.69c-1.001,1.897-1.937,3.833-2.988,5.71c-0.428,0.889-0.846,0.076-1.256-0.016
		c-0.414-0.097-0.822-0.154-1.204-0.087c-0.033,0.004-0.069,0.011-0.501,0.172c-0.032,0.018-0.065,0.038-0.096,0.058
		c-0.095,0.062-0.187,0.137-0.276,0.226c-0.525,0.529-0.54,1.18-0.266,1.832c0.341,0.812,0.972,1.07,1.809,0.881
		c1-0.494,1.201,0.887,2.018,0.864c0.688-0.018,0.68,0.541,0.729,1.021c0.702,1.405,1.214,1.563,2.991,0.92
		c0.768-1.206,0.582-2.285-0.601-3.166c-0.368-0.276-0.8-0.458-0.45-1.012c0.551-0.878,0.846-1.908,1.498-2.724
		c0.119,0.071,0.156,0.141,0.157,0.241c0.031,2.951,0.015,5.9,0.013,8.852c0,1.023,0.162,2.092-0.721,2.88
		c1.47,0.981,3.074,1.162,4.61,1.377c0.217-0.034,0.436-0.038,0.655-0.034c-0.077-0.094-0.078-0.238-0.08-0.368
		c-0.006-0.921-0.001-1.841-0.002-2.762c-0.003-0.802-0.004-1.604,0.001-2.404c0.001-0.236-0.008-0.533,0.322-0.522
		c0.294,0.009,0.354,0.279,0.354,0.529c0.002,1.723,0.004,3.445-0.005,5.166c-0.001,0.156-0.048,0.299-0.15,0.382
		c0.861,0.067,1.733,0.212,2.524-0.232c0.693-0.161,1.243-0.038,1.481-0.224c0.339-0.259,0.152-1.392,0.15-2.457
		c-0.008-3.416-0.013-6.828,0.015-10.239c0.005-0.362-0.312-0.874,0.284-1.113c0.296,0.425,0.522,0.905,0.811,1.348
		c0.938,1.45,2.134,1.463,3.104,0.029c0.445-0.659,0.695-1.421,1.101-2.104c0.255-0.429,0.489-0.728,1.014-0.325
		c0.577,0.44,1.226,0.399,1.874,0.171C-22.611,15.781-22.506,14.967-22.676,14.036z"/>
	<path fill-rule="evenodd" clip-rule="evenodd" fill="#AFC9E9" d="M-36,0.019c-8.78,0-15.898,7.116-15.898,15.898
		c0,8.78,7.118,15.898,15.898,15.898s15.898-7.118,15.898-15.898C-20.102,7.135-27.22,0.019-36,0.019z M-36,31.02
		c-8.342,0-15.104-6.76-15.104-15.102c0-8.341,6.762-15.105,15.104-15.105s15.104,6.764,15.104,15.105
		C-20.896,24.26-27.658,31.02-36,31.02z"/>
</g>
<g>
	<g>
		<path fill-rule="evenodd" clip-rule="evenodd" fill="#AFC9E9" d="M13.77,10.388c-1.505,0.027-2.781-1.163-2.785-2.59
			c-0.004-1.427,1.233-2.636,2.724-2.654c1.525-0.021,2.708,1.103,2.74,2.602C16.48,9.238,15.34,10.362,13.77,10.388z"/>
		<path fill-rule="evenodd" clip-rule="evenodd" fill="#AFC9E9" d="M25.159,13.997c-0.272-0.753-0.866-0.934-1.591-0.961
			c-0.912-0.035-1.604-0.503-2.044-1.296c-0.223-0.397-0.407-0.8-0.872-0.96c-0.284-0.081-0.573-0.087-0.866-0.067
			c-0.172,0.017-0.337,0.051-0.497,0.111c-1.064,0.87-0.986,2.107,0.244,2.617c0.838,0.349,0.546,0.638,0.137,1.138
			c-0.482-0.681-0.847-1.328-1.202-1.976c-0.717-1.054-1.706-1.52-2.978-1.478c-1.195,0.04-2.4,0.083-3.595-0.007
			c-1.834-0.139-2.947,0.772-3.755,2.308c-0.859,1.629-1.662,3.294-2.566,4.904c-0.366,0.765-0.727,0.067-1.076-0.012
			c-0.357-0.082-0.706-0.133-1.035-0.076c-0.029,0.004-0.059,0.011-0.432,0.149c-0.027,0.016-0.054,0.031-0.081,0.049
			c-0.083,0.053-0.161,0.116-0.236,0.194c-0.453,0.453-0.465,1.011-0.229,1.574c0.292,0.695,0.834,0.917,1.553,0.755
			c0.857-0.425,1.03,0.761,1.731,0.741c0.591-0.013,0.584,0.465,0.626,0.878c0.604,1.206,1.044,1.344,2.57,0.791
			c0.658-1.038,0.5-1.964-0.517-2.72c-0.315-0.238-0.687-0.394-0.388-0.869c0.475-0.754,0.727-1.637,1.287-2.339
			c0.104,0.061,0.136,0.121,0.136,0.207c0.027,2.534,0.013,5.067,0.012,7.602c-0.002,0.88,0.138,1.797-0.62,2.475
			c1.263,0.84,2.642,0.996,3.961,1.181c0.185-0.029,0.373-0.032,0.562-0.028c-0.065-0.08-0.067-0.205-0.069-0.316
			c-0.005-0.791-0.001-1.581-0.002-2.374c0-0.687-0.003-1.374,0.001-2.062c0.001-0.202-0.007-0.458,0.277-0.449
			c0.253,0.008,0.304,0.24,0.304,0.457c0.003,1.478,0.004,2.956-0.004,4.436c-0.001,0.134-0.041,0.255-0.129,0.326
			c0.738,0.058,1.488,0.184,2.167-0.2c0.597-0.137,1.067-0.032,1.273-0.19c0.29-0.225,0.13-1.195,0.129-2.112
			c-0.007-2.932-0.012-5.862,0.013-8.791c0.005-0.311-0.269-0.75,0.245-0.956c0.253,0.364,0.448,0.778,0.696,1.156
			c0.806,1.247,1.831,1.256,2.664,0.023c0.382-0.565,0.598-1.218,0.944-1.804c0.219-0.369,0.421-0.625,0.872-0.279
			c0.495,0.377,1.052,0.341,1.609,0.146C25.213,15.495,25.306,14.795,25.159,13.997z"/>
		<path fill-rule="evenodd" clip-rule="evenodd" fill="#AFC9E9" d="M20.94,26.363c-2.064,1.395-4.545,2.22-7.224,2.22
			c-7.163,0-12.971-5.809-12.971-12.971c0-7.164,5.808-12.971,12.971-12.971s12.972,5.807,12.972,12.971
			c0,0.887-0.108,1.747-0.283,2.583c0.238,0.017,0.463,0.047,0.676,0.098c0.181-0.866,0.29-1.76,0.29-2.68
			c0-7.542-6.113-13.654-13.654-13.654c-7.54,0-13.653,6.112-13.653,13.654c0,7.541,6.113,13.654,13.653,13.654
			c2.779,0,5.352-0.845,7.508-2.272C21.112,26.792,21.018,26.582,20.94,26.363z"/>
	</g>
	<g>
		<path fill-rule="evenodd" clip-rule="evenodd" fill="#AFC9E9" d="M26.019,18.038c-3.27,0-5.919,2.649-5.919,5.918
			s2.649,5.919,5.919,5.919c3.269,0,5.919-2.65,5.919-5.919S29.287,18.038,26.019,18.038z M26.019,29.579
			c-1.289,0-2.474-0.438-3.422-1.168c-0.702-0.41-1.204-1.035-1.508-1.752c-0.441-0.802-0.693-1.722-0.693-2.703
			c0-3.104,2.518-5.623,5.623-5.623s5.623,2.519,5.623,5.623C31.642,27.062,29.124,29.579,26.019,29.579z"/>
		<g>
			<path fill="#AFC9E9" d="M22.995,27.521v-6.186l-1.045,0.566v-0.786l1.045-0.661h0.617v7.066H22.995z"/>
			<path fill="#AFC9E9" d="M24.356,25.013v-0.704h2.055v0.704H24.356z"/>
			<path fill="#AFC9E9" d="M30.294,24.151c0,1.158-0.169,2.081-0.515,2.765c-0.345,0.688-0.838,1.033-1.482,1.033
				c-0.437,0-0.769-0.136-0.987-0.397c-0.221-0.265-0.33-0.561-0.33-0.9v-0.044h0.614v0.044c0,0.144,0.056,0.274,0.174,0.403
				c0.112,0.126,0.288,0.188,0.519,0.188c0.278,0,0.516-0.112,0.722-0.337c0.207-0.225,0.367-0.589,0.483-1.104
				c0.121-0.513,0.182-1.04,0.182-1.584l-0.009-0.248c-0.148,0.271-0.297,0.469-0.442,0.607c-0.15,0.133-0.295,0.232-0.441,0.302
				s-0.302,0.103-0.469,0.103c-0.444,0-0.801-0.22-1.066-0.655c-0.266-0.434-0.398-0.957-0.398-1.571
				c0-0.434,0.067-0.832,0.206-1.178c0.14-0.351,0.334-0.63,0.579-0.825c0.246-0.199,0.516-0.299,0.809-0.299
				c0.336,0,0.654,0.137,0.955,0.417c0.298,0.273,0.522,0.688,0.673,1.233C30.219,22.657,30.294,23.338,30.294,24.151
				 M28.437,21.159c-0.269,0-0.492,0.156-0.672,0.463c-0.182,0.312-0.275,0.7-0.275,1.153c0,0.463,0.097,0.828,0.289,1.097
				c0.191,0.267,0.426,0.399,0.7,0.399c0.298,0,0.539-0.153,0.731-0.455c0.189-0.308,0.284-0.674,0.284-1.1
				c0-0.278-0.046-0.544-0.138-0.793c-0.094-0.255-0.221-0.443-0.385-0.568C28.809,21.223,28.63,21.159,28.437,21.159z"/>
		</g>
	</g>
</g>
<g>
	<path fill-rule="evenodd" clip-rule="evenodd" fill="#AFC9E9" d="M-348.052,9.897c-1.752-0.027-3.191-1.46-3.138-3.122
		c0.051-1.661,1.541-3.022,3.276-2.989c1.778,0.033,3.108,1.387,3.086,3.134C-344.85,8.659-346.223,9.925-348.052,9.897z"/>
	<path fill-rule="evenodd" clip-rule="evenodd" fill="#AFC9E9" d="M-348,0.093c-8.784,0-15.907,7.121-15.907,15.907
		c0,8.785,7.123,15.907,15.907,15.907c8.785,0,15.907-7.122,15.907-15.907C-332.093,7.214-339.215,0.093-348,0.093z M-348,31.111
		c-8.346,0-15.111-6.766-15.111-15.111c0-8.345,6.766-15.113,15.111-15.113c8.347,0,15.111,6.768,15.111,15.113
		C-332.889,24.346-339.653,31.111-348,31.111z"/>
	<path fill="#AFC9E9" d="M-339.846,14.052c0.02-3.249-3.801-3.437-3.801-3.437l-9.335,0.039c0,0-3.173,0.113-3.173,3.473
		c0,3.36,0,9.869,0,9.869s0.083,1.002,0.906,1.078c0.826,0.073,0.366,0.111,1.135-0.114c0.757-0.216,0.852-0.347,0.917,0.75
		c0.064,1.086,0.104,2.06,0.104,2.06l-0.217,1.807l-0.244,0.663l0.823,0.348c0,0,3.708,1.723,9.354-0.093l0.795-0.394
		c0,0-0.411-0.861-0.401-1.929c0.01-1.059-0.113-1.143,0.093-3.062c0,0,0.113-0.823,0.899-0.338
		c0.786,0.487,0.234,0.196,1.078,0.338c0.756,0.122,1.065-1.423,1.065-1.423S-339.873,17.301-339.846,14.052z M-348.965,21.221
		l-3.211-3.594v3.594h-0.898v-6.885h0.898v3.291l2.875-3.291h1.021l-2.84,3.225l3.282,3.66H-348.965z M-347.991,31.129
		c-0.279,0-0.515-1.339-0.515-2.987c0-1.657,0.235-2.995,0.515-2.995c0.29,0,0.517,1.338,0.517,2.995
		C-347.475,29.79-347.701,31.129-347.991,31.129z M-342.943,15.749h-0.828v-0.043c0-0.161-0.061-0.311-0.184-0.448
		c-0.124-0.139-0.285-0.247-0.485-0.325s-0.426-0.117-0.679-0.117c-0.671,0-1.182,0.262-1.533,0.787
		c-0.352,0.527-0.528,1.248-0.528,2.166c0,0.92,0.182,1.644,0.542,2.177c0.362,0.533,0.87,0.799,1.526,0.799
		c0.386,0,0.833-0.093,1.341-0.278v-1.961h-1.548v-0.693h2.376v3.098c-0.731,0.347-1.43,0.521-2.091,0.521
		c-0.688,0-1.246-0.137-1.673-0.41c-0.425-0.273-0.765-0.667-1.02-1.181c-0.255-0.515-0.382-1.175-0.382-1.985
		c0-0.907,0.119-1.613,0.359-2.114c0.242-0.501,0.581-0.895,1.019-1.181c0.437-0.286,0.957-0.427,1.562-0.427
		c0.409,0,0.784,0.064,1.12,0.195c0.337,0.132,0.607,0.329,0.807,0.592c0.199,0.265,0.299,0.528,0.299,0.789V15.749z"/>
</g>
</svg>
